<mxfile host="app.diagrams.net" modified="2023-07-19T14:57:07.223Z" agent="Mozilla/5.0 (Windows NT 10.0; Win64; x64) AppleWebKit/537.36 (KHTML, like Gecko) Chrome/114.0.0.0 Safari/537.36 Edg/114.0.1823.82" version="21.6.3" etag="5YyG9tRiaYctTiVXp6Pw" type="github">
  <diagram name="Page-1" id="r3Fe4b_1P8iB-DJXWclb">
    <mxGraphModel>
      <root>
        <mxCell id="0" />
        <mxCell id="1" parent="0" />
      </root>
    </mxGraphModel>
  </diagram>
</mxfile>
